<svg id="Layer_1" data-name="Layer 1" xmlns="http://www.w3.org/2000/svg" viewBox="0 0 489.17 43.14"><defs><style>.cls-1{fill:#3f738c;}.cls-2{fill:#fff;}.cls-3{fill:none;stroke:#40738d;stroke-miterlimit:10;stroke-width:1.5px;}</style></defs><title>31_labs_icons</title><path class="cls-1" d="M79.3,207.5a21.24,21.24,0,1,1,21.24-21.24A21.26,21.26,0,0,1,79.3,207.5Zm0-41a19.79,19.79,0,1,0,19.79,19.78A19.8,19.8,0,0,0,79.3,166.48Z" transform="translate(-58.06 -165.02)"/><path class="cls-1" d="M72.52,199.69a.57.57,0,0,1-.37-.14.59.59,0,0,1-.17-.5l1.54-9.24h0a3.39,3.39,0,0,1-1-1.7,4,4,0,0,0-.44-1,4.49,4.49,0,0,0-.77-.71A3.41,3.41,0,0,1,70,184.89a3.26,3.26,0,0,1,.15-1.95,2.91,2.91,0,0,0,0-2.17,3.29,3.29,0,0,1-.15-2,3.44,3.44,0,0,1,1.31-1.53,4.49,4.49,0,0,0,.77-.71,4,4,0,0,0,.44-1,3.39,3.39,0,0,1,1-1.7,3.34,3.34,0,0,1,1.93-.47,4.18,4.18,0,0,0,1.07-.13,3.82,3.82,0,0,0,.9-.51,2.69,2.69,0,0,1,3.77,0,3.59,3.59,0,0,0,.89.51,4.29,4.29,0,0,0,1.07.13,3.37,3.37,0,0,1,1.94.47,3.45,3.45,0,0,1,1,1.7,4.39,4.39,0,0,0,.45,1,3.85,3.85,0,0,0,.77.71,3.44,3.44,0,0,1,1.31,1.53,3.32,3.32,0,0,1-.15,2,4.16,4.16,0,0,0-.22,1.07,4.3,4.3,0,0,0,.22,1.09,3.29,3.29,0,0,1,.15,2,3.44,3.44,0,0,1-1.31,1.53,3.85,3.85,0,0,0-.77.71,4.39,4.39,0,0,0-.45,1,3.45,3.45,0,0,1-1,1.7L86.63,199a.59.59,0,0,1-.17.5.56.56,0,0,1-.51.12l-6.65-1.73-6.64,1.76Zm2-9.48L73.2,198.4l1.43-.38,1.29-7.72-.47,0A6.94,6.94,0,0,1,74.56,190.21ZM83.94,198l1.47.38L84,190.21a6.8,6.8,0,0,1-.89.07l-.44,0Zm-7-7.37-1.18,7.09,3.37-.89a.45.45,0,0,1,.28,0l3.34.87-1.13-7.08c-.15.09-.3.2-.46.31a2.69,2.69,0,0,1-3.77,0Zm2.33-17.51a2.63,2.63,0,0,0-1.27.59,4.75,4.75,0,0,1-1.17.64,4.84,4.84,0,0,1-1.36.18,1.61,1.61,0,0,0-2,1.46,5.16,5.16,0,0,1-.59,1.23,4.55,4.55,0,0,1-1,.93,1.61,1.61,0,0,0-.78,2.34,3.77,3.77,0,0,1,0,2.75,1.61,1.61,0,0,0,.78,2.34,4.81,4.81,0,0,1,1,.93,5.16,5.16,0,0,1,.59,1.23,1.61,1.61,0,0,0,2,1.46,4.84,4.84,0,0,1,1.36.18A4.75,4.75,0,0,1,78,190a2.63,2.63,0,0,0,1.27.59,2.66,2.66,0,0,0,1.28-.59,4.69,4.69,0,0,1,1.16-.64,5,5,0,0,1,1.37-.18,2.56,2.56,0,0,0,1.33-.26,2.63,2.63,0,0,0,.67-1.2,4.77,4.77,0,0,1,.58-1.23,5.13,5.13,0,0,1,1-.93,2.59,2.59,0,0,0,.94-1,2.63,2.63,0,0,0-.16-1.33,3.77,3.77,0,0,1,0-2.75,2.63,2.63,0,0,0,.16-1.33,2.59,2.59,0,0,0-.94-1,4.84,4.84,0,0,1-1-.93,4.77,4.77,0,0,1-.58-1.23,2.63,2.63,0,0,0-.67-1.2,2.56,2.56,0,0,0-1.33-.26,5,5,0,0,1-1.37-.18,4.69,4.69,0,0,1-1.16-.64A2.66,2.66,0,0,0,79.3,173.11Zm0,15.8a7.06,7.06,0,1,1,7.06-7.06A7.06,7.06,0,0,1,79.3,188.91Zm0-13a6,6,0,1,0,6,6A6,6,0,0,0,79.3,175.89Zm2.37,10.05a.6.6,0,0,1-.29-.08l-2.08-1.31-2.07,1.31a.55.55,0,0,1-.83-.59l.58-2.4-1.86-1.56a.54.54,0,0,1-.17-.59.54.54,0,0,1,.48-.37l2.44-.21.93-2.24a.53.53,0,0,1,.5-.34.55.55,0,0,1,.51.34l.93,2.24,2.44.21a.54.54,0,0,1,.48.37.58.58,0,0,1-.17.59l-1.86,1.56.57,2.4a.55.55,0,0,1-.21.57A.63.63,0,0,1,81.67,185.94Zm-2.37-2.58a.52.52,0,0,1,.29.09l1.24.77-.35-1.43a.57.57,0,0,1,.18-.54l1.11-.93-1.46-.12a.55.55,0,0,1-.45-.34l-.56-1.33-.55,1.33a.56.56,0,0,1-.46.34l-1.45.12,1.1.93a.53.53,0,0,1,.18.54l-.34,1.43,1.23-.77A.52.52,0,0,1,79.3,183.36Z" transform="translate(-58.06 -165.02)"/><path class="cls-1" d="M411.87,207.5a21.24,21.24,0,1,1,21.24-21.24A21.26,21.26,0,0,1,411.87,207.5Zm0-41a19.79,19.79,0,1,0,19.78,19.78A19.81,19.81,0,0,0,411.87,166.48Z" transform="translate(-58.06 -165.02)"/><path class="cls-1" d="M411.87,199a12.24,12.24,0,1,1,12.23-12.24A12.26,12.26,0,0,1,411.87,199Zm0-23.39A11.15,11.15,0,1,0,423,186.75,11.16,11.16,0,0,0,411.87,175.6ZM410.06,192a.54.54,0,0,1-.39-.16l-4-4a.54.54,0,0,1,0-.78.55.55,0,0,1,.77,0l3.54,3.54,7.19-8.93a.55.55,0,0,1,.77-.08.54.54,0,0,1,.08.77l-7.57,9.4a.57.57,0,0,1-.4.2Z" transform="translate(-58.06 -165.02)"/><path class="cls-1" d="M299.86,208a20.66,20.66,0,1,1,20.65-20.65A20.68,20.68,0,0,1,299.86,208Zm0-39.85a19.2,19.2,0,1,0,19.2,19.2A19.22,19.22,0,0,0,299.86,168.16Z" transform="translate(-58.06 -165.02)"/><path class="cls-1" d="M309.77,194.68H308.3a1.89,1.89,0,0,1-1.89-1.89v-3.62H293.3v3.62a1.89,1.89,0,0,1-1.88,1.89H290a1.89,1.89,0,0,1-1.89-1.89v-.92a1.78,1.78,0,0,1-.53.08h-1.38a1.62,1.62,0,0,1-1.62-1.62v-6.77a1.63,1.63,0,0,1,1.62-1.62h1.38a1.51,1.51,0,0,1,.53.09v-.93a1.89,1.89,0,0,1,1.89-1.88h1.47a1.88,1.88,0,0,1,1.88,1.88v3.63h13.11V181.1a1.89,1.89,0,0,1,1.89-1.88h1.47a1.88,1.88,0,0,1,1.88,1.88V182a1.6,1.6,0,0,1,.53-.09h1.38a1.62,1.62,0,0,1,1.62,1.62v6.77a1.61,1.61,0,0,1-1.62,1.62h-1.38a1.89,1.89,0,0,1-.53-.08v.92A1.89,1.89,0,0,1,309.77,194.68Zm-1.47-14.37a.8.8,0,0,0-.8.79v11.69a.79.79,0,0,0,.8.79h1.47a.79.79,0,0,0,.79-.79V181.1a.79.79,0,0,0-.79-.79Zm-19.15,10v2.46a.79.79,0,0,0,.8.79h1.47a.79.79,0,0,0,.79-.79V181.1a.8.8,0,0,0-.79-.79H290a.8.8,0,0,0-.8.79Zm23-7.29a.52.52,0,0,0-.53.52v6.77a.53.53,0,0,0,.53.53h1.38a.53.53,0,0,0,.53-.53v-6.77a.52.52,0,0,0-.53-.52Zm-26,0a.52.52,0,0,0-.53.52v6.77a.53.53,0,0,0,.53.53h1.38a.53.53,0,0,0,.53-.53v-6.77a.52.52,0,0,0-.53-.52Zm7.15,5h13.11v-2.25H293.3Z" transform="translate(-58.06 -165.02)"/><path class="cls-1" d="M526.58,206.92a20.66,20.66,0,1,1,20.65-20.66A20.69,20.69,0,0,1,526.58,206.92Zm0-39.85a19.2,19.2,0,1,0,19.2,19.19A19.22,19.22,0,0,0,526.58,167.07Z" transform="translate(-58.06 -165.02)"/><path class="cls-1" d="M526.58,196.89a8.4,8.4,0,0,1-8.47-8.31c0-4.44,7.73-13.45,8-13.83a.57.57,0,0,1,.42-.19h0a.53.53,0,0,1,.41.19c.33.38,8.06,9.39,8.06,13.83A8.4,8.4,0,0,1,526.58,196.89Zm0-20.93c-.68.82-2.11,2.58-3.52,4.6-2.52,3.61-3.86,6.38-3.86,8a7.38,7.38,0,0,0,14.75,0c0-1.64-1.33-4.42-3.86-8C528.68,178.53,527.26,176.78,526.58,176Z" transform="translate(-58.06 -165.02)"/><path class="cls-2" d="M531.72,194.68l3.34-3.34m-3.34,0,3.34,3.34m2.62-1.68a4.3,4.3,0,1,1-4.3-4.29,4.3,4.3,0,0,1,4.3,4.29" transform="translate(-58.06 -165.02)"/><path class="cls-1" d="M533.38,197.84a4.84,4.84,0,1,1,4.84-4.84A4.84,4.84,0,0,1,533.38,197.84Zm0-8.59a3.75,3.75,0,1,0,3.75,3.75A3.76,3.76,0,0,0,533.38,189.25Zm1.68,6a.54.54,0,0,1-.39-.16l-1.28-1.28-1.28,1.28a.54.54,0,1,1-.77-.77l1.28-1.28-1.28-1.28a.54.54,0,0,1,.77-.77l1.28,1.28,1.28-1.28a.54.54,0,1,1,.77.77L534.16,193l1.28,1.28a.53.53,0,0,1,0,.77A.51.51,0,0,1,535.06,195.22Z" transform="translate(-58.06 -165.02)"/><path class="cls-1" d="M186.74,205.71a1.91,1.91,0,0,1-1.91-1.91,1.83,1.83,0,0,1,.17-.8l1.4-3.19a.43.43,0,0,1,.4-.26h0a.44.44,0,0,1,.4.27l1.29,3.21h0a1.83,1.83,0,0,1,.16.77,1.92,1.92,0,0,1-1.91,1.91m0-4.61-1,2.25a1,1,0,1,0,2,.45,1.07,1.07,0,0,0-.09-.43h0Z" transform="translate(-58.06 -165.02)"/><path class="cls-3" d="M165,186.62a20.8,20.8,0,1,0,20.8-20.8" transform="translate(-58.06 -165.02)"/><path class="cls-3" d="M185.82,165.82a20.82,20.82,0,0,0-20.8,20.8" transform="translate(-58.06 -165.02)"/><path class="cls-1" d="M189.27,198.91h-6.4a.47.47,0,0,1-.47-.48v-1.81l-14.08-8.48a.48.48,0,0,1,.25-.89h35a.48.48,0,0,1,.46.35.47.47,0,0,1-.22.54l-14.07,8.48v1.81a.47.47,0,0,1-.48.48m-5.92-1h5.44v-1.6a.46.46,0,0,1,.24-.41l12.82-7.73H170.29l12.83,7.73a.45.45,0,0,1,.23.41Z" transform="translate(-58.06 -165.02)"/><path class="cls-1" d="M186.07,186.88a.39.39,0,0,1-.34-.19,14.81,14.81,0,0,1-1.86-6.9,8.49,8.49,0,0,1,.42-2.64,9.58,9.58,0,0,1-1,1.45,11,11,0,0,1-4.9,3.2.37.37,0,0,1-.36-.08.4.4,0,0,1-.15-.34,10.72,10.72,0,0,1,2.27-5.28,7.63,7.63,0,0,1,1.7-1.44l-.93.27a10,10,0,0,1-4.74,0,.41.41,0,0,1-.18-.66,9.38,9.38,0,0,1,4-2.29,6.24,6.24,0,0,1,1.6-.17l-.4-.17a6.58,6.58,0,0,1-2.69-2.35.38.38,0,0,1,0-.36.41.41,0,0,1,.27-.23,6.12,6.12,0,0,1,3.72.36,21.81,21.81,0,0,1,2.6,1.42v-2.33a.4.4,0,0,1,.4-.4h1.21a.4.4,0,0,1,.4.4v2.35a23.42,23.42,0,0,1,2.65-1.44,5.82,5.82,0,0,1,3.69-.33.37.37,0,0,1,.26.24.36.36,0,0,1,0,.35,6.78,6.78,0,0,1-2.7,2.32,3.25,3.25,0,0,1-.43.18A6.69,6.69,0,0,1,192,172a10.18,10.18,0,0,1,4.16,2.27.38.38,0,0,1,.11.39.4.4,0,0,1-.27.29,9.66,9.66,0,0,1-4.55,0l-.85-.23a6.42,6.42,0,0,1,1.43,1.21,10.89,10.89,0,0,1,2.26,5.47.43.43,0,0,1-.14.35.41.41,0,0,1-.37.07,11,11,0,0,1-4.9-3.2,9.33,9.33,0,0,1-1-1.44,8.75,8.75,0,0,1,.41,2.63,14.81,14.81,0,0,1-1.86,6.9.42.42,0,0,1-.35.19m0-13.13a14.75,14.75,0,0,1-.74,2.8,9,9,0,0,0-.67,3.24,14,14,0,0,0,1.41,5.84,14,14,0,0,0,1.41-5.84,8.94,8.94,0,0,0-.66-3.25,15.35,15.35,0,0,1-.75-2.79m1-.1a12.91,12.91,0,0,1,.78,1.58,11,11,0,0,0,1.62,2.86,10,10,0,0,0,3.9,2.72,10,10,0,0,0-2-4.38,9.05,9.05,0,0,0-2.81-1.93,14,14,0,0,1-1.51-.85m-2,0c-.43.29-.92.58-1.44.87a10.6,10.6,0,0,0-2.89,2.09,9.89,9.89,0,0,0-2,4.2,10.3,10.3,0,0,0,3.89-2.72,11.33,11.33,0,0,0,1.64-2.88,11.92,11.92,0,0,1,.77-1.56m-7.93.66a9,9,0,0,0,3.55-.15c1.15-.31,2.21-.69,3.15-1,.35-.13.67-.25,1-.35a13.28,13.28,0,0,1-1.48-.08,10.65,10.65,0,0,0-3.16.05,8.69,8.69,0,0,0-3,1.56m10.14-1.53.79.28c1,.35,2.27.79,3.5,1.09a8.75,8.75,0,0,0,3.34.16,9.34,9.34,0,0,0-3.17-1.55,9.92,9.92,0,0,0-3,0,12.75,12.75,0,0,1-1.47.07m-1.6.28a.45.45,0,0,1,.16,0,.39.39,0,0,1,.2.2.41.41,0,0,1,.21-.2.44.44,0,0,1,.3,0,.41.41,0,0,1,0-.18.42.42,0,0,1,.18-.17.4.4,0,0,1-.23-.3.41.41,0,0,1,.25-.43,10,10,0,0,1,1.47-.39,11.59,11.59,0,0,0,2.31-.69,6,6,0,0,0,2-1.52,4.88,4.88,0,0,0-2.52.38,16.55,16.55,0,0,0-3.12,1.81.4.4,0,0,1-.43.07.39.39,0,0,1-.24-.36v-2.75h-.41v2.75a.4.4,0,0,1-.24.36.4.4,0,0,1-.44-.08,14.76,14.76,0,0,0-3.06-1.8,5.18,5.18,0,0,0-2.56-.4,6,6,0,0,0,2,1.54,11.45,11.45,0,0,0,2.28.67,10.88,10.88,0,0,1,1.5.41.39.39,0,0,1,0,.73.49.49,0,0,1,.18.17.41.41,0,0,1,0,.18l.14,0" transform="translate(-58.06 -165.02)"/></svg>