<?xml version="1.0" encoding="utf-8"?>
<!-- Generator: Adobe Illustrator 24.0.1, SVG Export Plug-In . SVG Version: 6.00 Build 0)  -->
<svg version="1.1" id="Layer_1" xmlns="http://www.w3.org/2000/svg" xmlns:xlink="http://www.w3.org/1999/xlink" x="0px" y="0px"
	 viewBox="0 0 45 45" style="enable-background:new 0 0 45 45;" xml:space="preserve">
<style type="text/css">
	.st0{fill:#41748D;}
</style>
<path class="st0" d="M22.5,43.74c-11.73,0-21.24-9.51-21.24-21.24S10.77,1.26,22.5,1.26s21.24,9.51,21.24,21.24l0,0
	C43.73,34.23,34.23,43.73,22.5,43.74z M22.5,2.74C11.57,2.73,2.71,11.59,2.7,22.52s8.85,19.79,19.78,19.8s19.79-8.85,19.8-19.78
	c0-0.01,0-0.01,0-0.02C42.27,11.59,33.43,2.74,22.5,2.72V2.74z"/>
<path class="st0" d="M22.5,35.24c-6.76,0.01-12.24-5.47-12.25-12.23s5.47-12.24,12.23-12.25s12.24,5.47,12.25,12.23V23
	C34.72,29.75,29.25,35.22,22.5,35.24z M22.5,11.85c-6.16-0.01-11.16,4.97-11.17,11.13s4.97,11.16,11.13,11.17
	s11.16-4.97,11.17-11.13c0-0.01,0-0.02,0-0.03C33.62,16.84,28.65,11.86,22.5,11.85L22.5,11.85z M20.69,28.24
	c-0.15,0-0.29-0.06-0.39-0.16l-4-4c-0.22-0.21-0.22-0.55-0.02-0.76c0.01-0.01,0.01-0.01,0.02-0.02c0.21-0.21,0.56-0.21,0.77,0
	l3.54,3.54l7.19-8.93c0.19-0.23,0.53-0.27,0.77-0.08c0.23,0.18,0.27,0.52,0.09,0.76l-0.01,0.01L21.08,28
	c-0.1,0.12-0.24,0.19-0.4,0.2L20.69,28.24z"/>
</svg>
