<?xml version="1.0" encoding="utf-8"?>
<!-- Generator: Adobe Illustrator 24.0.1, SVG Export Plug-In . SVG Version: 6.00 Build 0)  -->
<svg version="1.1" id="Layer_1" xmlns="http://www.w3.org/2000/svg" xmlns:xlink="http://www.w3.org/1999/xlink" x="0px" y="0px"
	 viewBox="0 0 45 45" style="enable-background:new 0 0 45 45;" xml:space="preserve">
<style type="text/css">
	.st0{fill:#41748D;}
	.st1{fill:#FFFFFF;}
</style>
<path class="st0" d="M22.51,43.16C11.1,43.17,1.85,33.92,1.84,22.51S11.08,1.85,22.49,1.84s20.66,9.24,20.67,20.65v0.01
	C43.15,33.9,33.91,43.14,22.51,43.16z M22.51,3.31c-10.6,0-19.2,8.6-19.2,19.2s8.6,19.2,19.2,19.2s19.2-8.6,19.2-19.2V22.5
	C41.7,11.9,33.11,3.32,22.51,3.31z"/>
<path class="st0" d="M22.51,33.13c-4.63,0.04-8.42-3.68-8.47-8.31c0-4.44,7.73-13.45,8-13.83c0.11-0.12,0.26-0.19,0.42-0.19l0,0
	c0.16,0,0.31,0.07,0.41,0.19c0.33,0.38,8.06,9.39,8.06,13.83C30.88,29.43,27.12,33.14,22.51,33.13z M22.51,12.2
	c-0.68,0.82-2.11,2.58-3.52,4.6c-2.52,3.61-3.86,6.38-3.86,8c0.15,4.07,3.57,7.25,7.65,7.1c3.86-0.14,6.96-3.24,7.1-7.1
	c0-1.64-1.33-4.42-3.86-8c-1.41-2.03-2.83-3.78-3.51-4.56V12.2L22.51,12.2z"/>
<path class="st1" d="M27.65,30.92l3.34-3.34 M27.65,27.58l3.34,3.34 M33.61,29.24c0.01,2.37-1.92,4.3-4.29,4.31
	c-2.37,0.01-4.3-1.92-4.31-4.29s1.92-4.3,4.29-4.31h0.01C31.68,24.95,33.61,26.87,33.61,29.24"/>
<path class="st0" d="M29.31,34.08c-2.67,0-4.84-2.17-4.84-4.84s2.17-4.84,4.84-4.84s4.84,2.17,4.84,4.84S31.99,34.08,29.31,34.08
	L29.31,34.08z M29.31,25.49c-2.07,0-3.75,1.68-3.75,3.75s1.68,3.75,3.75,3.75s3.75-1.68,3.75-3.75l0,0
	C33.06,27.17,31.38,25.5,29.31,25.49z M30.99,31.49c-0.15,0-0.29-0.06-0.39-0.16l-1.28-1.28l-1.28,1.28c-0.21,0.21-0.56,0.21-0.77,0
	s-0.21-0.56,0-0.77l1.28-1.28L27.27,28c-0.21-0.21-0.21-0.56,0-0.77s0.56-0.21,0.77,0l1.28,1.28l1.28-1.28
	c0.21-0.21,0.56-0.21,0.77,0s0.21,0.56,0,0.77l-1.28,1.24l1.28,1.28c0.21,0.2,0.22,0.54,0.02,0.75c-0.01,0.01-0.01,0.01-0.02,0.02
	c-0.1,0.11-0.23,0.17-0.38,0.17L30.99,31.49L30.99,31.49z"/>
</svg>
