<?xml version="1.0" encoding="utf-8"?>
<!-- Generator: Adobe Illustrator 24.0.1, SVG Export Plug-In . SVG Version: 6.00 Build 0)  -->
<svg version="1.1" id="Layer_1" xmlns="http://www.w3.org/2000/svg" xmlns:xlink="http://www.w3.org/1999/xlink" x="0px" y="0px"
	 viewBox="0 0 45 45" style="enable-background:new 0 0 45 45;" xml:space="preserve">
<style type="text/css">
	.st0{fill:#41748D;}
</style>
<path class="st0" d="M22.5,43.74c-11.73,0-21.24-9.51-21.24-21.24S10.77,1.26,22.5,1.26s21.24,9.51,21.24,21.24
	C43.73,34.23,34.23,43.73,22.5,43.74z M22.5,2.74c-10.93,0-19.79,8.86-19.79,19.79s8.86,19.79,19.79,19.79s19.79-8.86,19.79-19.79
	v-0.01c0-10.93-8.86-19.79-19.79-19.8V2.74z"/>
<path class="st0" d="M15.72,35.93c-0.14,0-0.27-0.05-0.37-0.14c-0.13-0.13-0.2-0.32-0.17-0.5l1.54-9.24l0,0
	c-0.49-0.46-0.84-1.05-1-1.7c-0.1-0.35-0.25-0.69-0.44-1c-0.23-0.27-0.49-0.5-0.77-0.71c-0.58-0.36-1.03-0.89-1.31-1.51
	c-0.15-0.65-0.1-1.33,0.15-1.95c0.28-0.7,0.28-1.47,0-2.17c-0.26-0.63-0.31-1.33-0.15-2c0.27-0.63,0.73-1.16,1.31-1.53
	c0.28-0.21,0.54-0.44,0.77-0.71c0.19-0.31,0.34-0.65,0.44-1c0.16-0.65,0.51-1.24,1-1.7c0.58-0.35,1.25-0.51,1.93-0.47
	c0.36,0,0.72-0.04,1.07-0.13c0.32-0.13,0.62-0.3,0.9-0.51c1.05-1.03,2.72-1.03,3.77,0c0.27,0.21,0.57,0.38,0.89,0.51
	c0.35,0.09,0.71,0.13,1.07,0.13c0.68-0.04,1.36,0.12,1.94,0.47c0.49,0.46,0.84,1.05,1,1.7c0.11,0.35,0.26,0.69,0.45,1
	c0.22,0.27,0.48,0.51,0.77,0.71c0.58,0.37,1.04,0.9,1.31,1.53c0.16,0.67,0.11,1.36-0.15,2c-0.12,0.35-0.19,0.71-0.22,1.07
	c0.03,0.37,0.1,0.74,0.22,1.09c0.26,0.63,0.31,1.33,0.15,2c-0.27,0.63-0.73,1.16-1.31,1.53c-0.29,0.2-0.55,0.44-0.77,0.71
	c-0.19,0.31-0.34,0.65-0.45,1c-0.16,0.65-0.51,1.24-1,1.7l1.54,9.13c0.03,0.18-0.04,0.37-0.17,0.5c-0.14,0.12-0.33,0.17-0.51,0.12
	l-6.65-1.73l-6.64,1.76L15.72,35.93z M17.72,26.45l-1.32,8.19l1.43-0.38l1.29-7.72h-0.47c-0.3-0.01-0.6-0.04-0.89-0.09
	C17.76,26.45,17.72,26.45,17.72,26.45z M27.14,34.24l1.47,0.38l-1.41-8.17c-0.29,0.04-0.59,0.07-0.89,0.07h-0.44L27.14,34.24z
	 M20.14,26.87l-1.18,7.09l3.37-0.89c0.09-0.03,0.19-0.03,0.28,0l3.34,0.87l-1.13-7.08c-0.15,0.09-0.3,0.2-0.46,0.31
	c-1.05,1.03-2.72,1.03-3.77,0L20.14,26.87z M22.47,9.36C22,9.44,21.56,9.64,21.2,9.95c-0.36,0.27-0.75,0.48-1.17,0.64
	c-0.44,0.12-0.9,0.18-1.36,0.18c-0.86-0.22-1.74,0.31-1.95,1.17c-0.02,0.1-0.04,0.19-0.05,0.29c-0.14,0.43-0.34,0.85-0.59,1.23
	c-0.28,0.36-0.62,0.67-1,0.93c-0.83,0.33-1.23,1.26-0.91,2.09c0.03,0.09,0.08,0.17,0.13,0.25c0.35,0.88,0.35,1.87,0,2.75
	c-0.47,0.76-0.23,1.75,0.53,2.21c0.08,0.05,0.16,0.09,0.25,0.13c0.38,0.26,0.71,0.57,1,0.93c0.25,0.38,0.45,0.8,0.59,1.23
	c0.06,0.89,0.82,1.56,1.71,1.51c0.1-0.01,0.2-0.02,0.29-0.05c0.46,0,0.92,0.06,1.36,0.18c0.42,0.15,0.81,0.36,1.17,0.62
	c0.36,0.31,0.8,0.51,1.27,0.59c0.47-0.08,0.91-0.28,1.28-0.59c0.35-0.27,0.74-0.48,1.16-0.64c0.45-0.12,0.91-0.18,1.37-0.18
	c0.46,0.03,0.92-0.06,1.33-0.26c0.33-0.33,0.56-0.75,0.67-1.2c0.13-0.44,0.33-0.85,0.58-1.23c0.29-0.35,0.63-0.67,1-0.93
	c0.4-0.24,0.72-0.59,0.94-1c0.06-0.45,0.01-0.91-0.16-1.33c-0.35-0.88-0.35-1.87,0-2.75c0.17-0.42,0.22-0.88,0.16-1.33
	c-0.22-0.41-0.54-0.76-0.94-1c-0.38-0.26-0.71-0.57-1-0.93c-0.25-0.38-0.45-0.79-0.58-1.23c-0.11-0.45-0.34-0.87-0.67-1.2
	c-0.41-0.2-0.87-0.29-1.33-0.26c-0.46,0-0.92-0.06-1.37-0.18c-0.42-0.16-0.81-0.37-1.16-0.64c-0.36-0.31-0.79-0.51-1.25-0.6
	L22.47,9.36z M22.47,25.16c-3.9,0-7.06-3.16-7.06-7.06s3.16-7.06,7.06-7.06s7.06,3.16,7.06,7.06l0,0c-0.01,3.88-3.15,7.03-7.03,7.05
	L22.47,25.16z M22.47,12.16c-3.31,0-6,2.69-6,6s2.69,6,6,6s6-2.69,6-6c0.02-3.31-2.66-6.01-5.97-6.03l0,0L22.47,12.16z M24.84,22.21
	c-0.1,0-0.2-0.03-0.29-0.08l-2.08-1.31l-2.07,1.31c-0.26,0.16-0.6,0.09-0.76-0.17c-0.08-0.12-0.1-0.28-0.07-0.42l0.58-2.4
	l-1.86-1.56c-0.17-0.14-0.24-0.38-0.17-0.59s0.26-0.36,0.48-0.37l2.44-0.21l0.93-2.24c0.08-0.21,0.28-0.34,0.5-0.34
	s0.42,0.13,0.51,0.34l0.93,2.24l2.44,0.21c0.22,0.01,0.41,0.16,0.48,0.37c0.06,0.21-0.01,0.44-0.17,0.59l-1.86,1.56l0.57,2.4
	c0.05,0.21-0.03,0.44-0.21,0.57c-0.09,0.05-0.19,0.07-0.29,0.07L24.84,22.21z M22.47,19.63c0.1,0,0.2,0.03,0.29,0.09L24,20.49
	l-0.35-1.43c-0.04-0.2,0.03-0.4,0.18-0.54l1.11-0.93l-1.46-0.12c-0.2-0.02-0.37-0.15-0.45-0.34l-0.56-1.33l-0.55,1.33
	c-0.08,0.19-0.26,0.32-0.46,0.34l-1.45,0.12l1.1,0.93c0.16,0.13,0.23,0.34,0.18,0.54l-0.34,1.43l1.23-0.77
	c0.09-0.07,0.2-0.12,0.32-0.12L22.47,19.63z"/>
</svg>
