<?xml version="1.0" encoding="utf-8"?>
<!-- Generator: Adobe Illustrator 24.0.1, SVG Export Plug-In . SVG Version: 6.00 Build 0)  -->
<svg version="1.1" id="Layer_1" xmlns="http://www.w3.org/2000/svg" xmlns:xlink="http://www.w3.org/1999/xlink" x="0px" y="0px"
	 viewBox="0 0 45 45" style="enable-background:new 0 0 45 45;" xml:space="preserve">
<style type="text/css">
	.st0{fill:#41748D;}
</style>
<path class="st0" d="M22.51,43.16C11.1,43.17,1.85,33.92,1.84,22.51S11.08,1.85,22.49,1.84s20.66,9.24,20.67,20.65
	c0,0.01,0,0.01,0,0.02C43.15,33.91,33.91,43.14,22.51,43.16z M22.51,3.31c-10.6,0-19.2,8.6-19.2,19.2s8.6,19.2,19.2,19.2
	s19.2-8.6,19.2-19.2c-0.02-10.6-8.6-19.18-19.2-19.19C22.51,3.32,22.51,3.31,22.51,3.31z"/>
<path class="st0" d="M32.42,29.84h-1.47c-1.04,0-1.89-0.85-1.89-1.89l0,0v-3.62H15.95v3.62c0,1.04-0.84,1.88-1.88,1.89h-1.42
	c-1.04,0-1.89-0.85-1.89-1.89l0,0v-0.92c-0.17,0.05-0.35,0.08-0.53,0.08H8.85c-0.89,0-1.62-0.73-1.62-1.62v-6.77
	c0.01-0.89,0.73-1.61,1.62-1.62h1.38c0.18,0,0.36,0.03,0.53,0.09v-0.93c0.01-1.04,0.85-1.88,1.89-1.88h1.47
	c1.04,0,1.88,0.84,1.88,1.88l0,0v3.63h13.11v-3.63c0.01-1.04,0.85-1.88,1.89-1.88h1.47c1.04,0,1.88,0.84,1.88,1.88l0,0v0.9
	c0.17-0.06,0.35-0.09,0.53-0.09h1.38c0.89,0,1.62,0.73,1.62,1.62v6.77c0.01,0.89-0.71,1.61-1.6,1.62c-0.01,0-0.01,0-0.02,0h-1.38
	c-0.18,0-0.36-0.03-0.53-0.08v0.92c0.02,1.04-0.82,1.9-1.86,1.92C32.47,29.84,32.45,29.84,32.42,29.84z M30.95,15.47
	c-0.44,0-0.79,0.35-0.8,0.79v11.69c0,0.44,0.35,0.79,0.79,0.79h0.01h1.47c0.44,0,0.79-0.35,0.79-0.79l0,0V16.26
	c0-0.44-0.35-0.79-0.79-0.79l0,0H30.95z M11.8,25.47v2.46c0,0.44,0.35,0.79,0.79,0.79h0.01h1.47c0.44,0,0.79-0.35,0.79-0.79l0,0
	V16.26c-0.01-0.43-0.36-0.78-0.79-0.79h-1.42c-0.44,0-0.79,0.35-0.8,0.79L11.8,25.47z M34.8,18.18c-0.29-0.01-0.52,0.22-0.53,0.51
	v0.01v6.77c0,0.29,0.24,0.53,0.53,0.53h1.38c0.29,0,0.53-0.24,0.53-0.53V18.7c0-0.29-0.23-0.52-0.52-0.52h-0.01H34.8L34.8,18.18z
	 M8.8,18.18c-0.29-0.01-0.52,0.22-0.53,0.51v0.01v6.77C8.27,25.76,8.51,26,8.8,26h1.38c0.29,0,0.53-0.24,0.53-0.53V18.7
	c0-0.29-0.23-0.52-0.52-0.52h-0.01H8.8L8.8,18.18z M15.95,23.18h13.11v-2.25H15.95V23.18z"/>
</svg>
