<?xml version="1.0" encoding="utf-8"?>
<!-- Generator: Adobe Illustrator 24.0.1, SVG Export Plug-In . SVG Version: 6.00 Build 0)  -->
<svg version="1.1" id="Layer_1" xmlns="http://www.w3.org/2000/svg" xmlns:xlink="http://www.w3.org/1999/xlink" x="0px" y="0px"
	 viewBox="0 0 45 45" style="enable-background:new 0 0 45 45;" xml:space="preserve">
<style type="text/css">
	.st0{fill:#41748D;}
	.st1{fill:none;stroke:#41748E;stroke-width:1.5;stroke-miterlimit:10;}
</style>
<path class="st0" d="M23.44,41.59c-1.05,0-1.91-0.86-1.91-1.91l0,0c0-0.28,0.05-0.55,0.17-0.8l1.4-3.19
	c0.07-0.16,0.23-0.26,0.4-0.26l0,0c0.18,0,0.33,0.11,0.4,0.27l1.29,3.21l0,0c0.11,0.24,0.16,0.5,0.16,0.77
	C25.34,40.73,24.49,41.58,23.44,41.59 M23.44,36.98l-1,2.25c-0.12,0.55,0.22,1.1,0.78,1.22c0.55,0.12,1.1-0.22,1.22-0.77
	c0-0.15-0.03-0.29-0.09-0.43l0,0L23.44,36.98z"/>
<path class="st1" d="M1.7,22.5c0,11.49,9.31,20.8,20.8,20.8s20.8-9.31,20.8-20.8S33.99,1.7,22.5,1.7"/>
<path class="st1" d="M22.52,1.7C11.04,1.71,1.73,11.02,1.72,22.5"/>
<path class="st0" d="M25.97,34.79h-6.4c-0.26,0-0.47-0.21-0.47-0.47v-0.01V32.5L5.02,24.02c-0.23-0.14-0.3-0.43-0.16-0.66
	c0.09-0.14,0.24-0.23,0.41-0.23h35c0.21,0,0.4,0.14,0.46,0.35s-0.03,0.43-0.22,0.54L26.44,32.5v1.81c0.01,0.26-0.2,0.47-0.46,0.48
	C25.97,34.79,25.97,34.79,25.97,34.79 M20.04,33.79h5.44v-1.6c0-0.17,0.09-0.33,0.24-0.41l12.82-7.73H6.99l12.83,7.73
	c0.15,0.08,0.24,0.24,0.23,0.41L20.04,33.79z"/>
<path class="st0" d="M22.77,22.76c-0.14,0-0.27-0.07-0.34-0.19c-1.17-2.11-1.81-4.48-1.86-6.9c0-0.9,0.14-1.79,0.42-2.64
	c-0.29,0.51-0.62,1-1,1.45c-1.31,1.49-3.01,2.6-4.9,3.2c-0.13,0.04-0.26,0.01-0.36-0.08c-0.1-0.08-0.16-0.21-0.15-0.34
	c0.26-1.93,1.05-3.76,2.27-5.28c0.49-0.56,1.07-1.05,1.7-1.44l-0.93,0.27c-1.56,0.38-3.18,0.38-4.74,0
	c-0.22-0.07-0.33-0.3-0.26-0.52c0.02-0.05,0.04-0.1,0.08-0.14c1.12-1.08,2.5-1.87,4-2.29c0.52-0.13,1.06-0.18,1.6-0.17l-0.4-0.17
	C16.8,7,15.87,6.19,15.21,5.17c-0.06-0.11-0.06-0.25,0-0.36c0.05-0.11,0.15-0.2,0.27-0.23c1.25-0.27,2.55-0.14,3.72,0.36
	c0.9,0.41,1.77,0.89,2.6,1.42V4.03c0-0.22,0.18-0.4,0.4-0.4h1.21c0.22,0,0.4,0.18,0.4,0.4v2.35c0.85-0.54,1.74-1.02,2.65-1.44
	c1.16-0.51,2.46-0.62,3.69-0.33c0.12,0.03,0.22,0.12,0.26,0.24c0.06,0.11,0.06,0.24,0,0.35c-0.68,1-1.61,1.8-2.7,2.32
	c-0.14,0.07-0.28,0.13-0.43,0.18c0.48,0.01,0.95,0.07,1.42,0.18c1.55,0.42,2.97,1.2,4.16,2.27c0.11,0.1,0.15,0.25,0.11,0.39
	c-0.03,0.14-0.14,0.25-0.27,0.29c-1.5,0.36-3.05,0.36-4.55,0L27.3,10.6c0.53,0.33,1.02,0.74,1.43,1.21
	c1.24,1.58,2.03,3.47,2.26,5.47c0.01,0.13-0.04,0.26-0.14,0.35c-0.1,0.08-0.24,0.11-0.37,0.07c-1.89-0.6-3.59-1.71-4.9-3.2
	c-0.38-0.45-0.71-0.93-1-1.44c0.27,0.85,0.41,1.74,0.41,2.63c-0.05,2.42-0.69,4.79-1.86,6.9c-0.08,0.12-0.21,0.19-0.35,0.19
	 M22.78,9.65c-0.15,0.96-0.4,1.89-0.74,2.8c-0.42,1.03-0.65,2.13-0.67,3.24c0.04,2.03,0.52,4.02,1.41,5.84
	c0.89-1.82,1.37-3.81,1.41-5.84c-0.02-1.12-0.24-2.22-0.66-3.25C23.19,11.54,22.94,10.6,22.78,9.65 M23.78,9.55
	c0.3,0.51,0.56,1.04,0.78,1.58c0.39,1.03,0.94,1.99,1.62,2.86c1.06,1.21,2.4,2.14,3.9,2.72c-0.3-1.6-0.99-3.1-2-4.38
	c-0.81-0.82-1.76-1.47-2.81-1.93c-0.52-0.25-1.02-0.54-1.51-0.85 M21.76,9.55c-0.43,0.29-0.92,0.58-1.44,0.87
	c-1.07,0.53-2.05,1.24-2.89,2.09c-0.99,1.22-1.68,2.66-2,4.2c1.49-0.59,2.82-1.52,3.89-2.72c0.68-0.87,1.24-1.84,1.64-2.88
	c0.22-0.54,0.48-1.06,0.77-1.56 M13.8,10.21c1.18,0.19,2.39,0.14,3.55-0.15c1.15-0.31,2.21-0.69,3.15-1c0.35-0.13,0.67-0.25,1-0.35
	c-0.49,0-0.99-0.03-1.48-0.08c-1.05-0.14-2.12-0.12-3.16,0.05c-1.09,0.32-2.11,0.85-3,1.56 M24,8.71l0.79,0.28
	c1,0.35,2.27,0.79,3.5,1.09c1.09,0.27,2.23,0.32,3.34,0.16C30.68,9.53,29.61,9,28.46,8.69c-0.99-0.15-2.01-0.15-3,0
	c-0.49,0.05-0.98,0.07-1.47,0.07 M22.39,9.04c0.05-0.01,0.11-0.01,0.16,0c0.09,0.04,0.16,0.11,0.2,0.2c0.04-0.09,0.12-0.16,0.21-0.2
	c0.1-0.04,0.2-0.04,0.3,0c-0.01-0.06-0.01-0.12,0-0.18c0.04-0.07,0.1-0.13,0.18-0.17c-0.12-0.06-0.21-0.17-0.23-0.3
	c-0.02-0.18,0.08-0.36,0.25-0.43c0.48-0.17,0.97-0.3,1.47-0.39c0.79-0.15,1.57-0.38,2.31-0.69c0.77-0.36,1.45-0.88,2-1.52
	c-0.86-0.1-1.73,0.03-2.52,0.38c-1.1,0.49-2.15,1.09-3.12,1.81c-0.12,0.11-0.29,0.13-0.43,0.07c-0.15-0.06-0.24-0.2-0.24-0.36V4.51
	h-0.41v2.75c0,0.16-0.1,0.3-0.24,0.36c-0.15,0.07-0.32,0.03-0.44-0.08c-0.94-0.72-1.97-1.33-3.06-1.8c-0.81-0.35-1.69-0.49-2.56-0.4
	c0.55,0.65,1.23,1.17,2,1.54c0.73,0.3,1.5,0.53,2.28,0.67c0.51,0.1,1.01,0.24,1.5,0.41c0.2,0.08,0.3,0.3,0.23,0.5
	C22.19,8.57,22.11,8.65,22,8.69c0.07,0.04,0.14,0.1,0.18,0.17c0.01,0.06,0.01,0.12,0,0.18h0.14"/>
</svg>
